<?xml version="1.0" encoding="iso-8859-1"?>
<!-- Generator: Adobe Illustrator 18.0.0, SVG Export Plug-In . SVG Version: 6.00 Build 0)  -->
<!DOCTYPE svg PUBLIC "-//W3C//DTD SVG 1.1//EN" "http://www.w3.org/Graphics/SVG/1.1/DTD/svg11.dtd">
<svg version="1.1" id="Capa_1" xmlns="http://www.w3.org/2000/svg" xmlns:xlink="http://www.w3.org/1999/xlink" x="0px" y="0px"
	 viewBox="0 0 330.002 330.002" style="enable-background:new 0 0 330.002 330.002;" xml:space="preserve">
<path d="M325.607,4.4c-2.813-2.813-6.629-4.393-10.607-4.393L165.281,0.014C165.187,0.013,165.096,0,165.001,0
	c-0.095,0-0.187,0.013-0.281,0.014L15,0.022c-8.284,0-14.999,6.716-14.999,15v299.981c0,8.284,6.716,15,15,15h300
	c8.284,0,15-6.716,15-15V15.007C330.001,11.028,328.421,7.213,325.607,4.4z M30.001,199.994v-70.006h50v70.006H30.001z
	 M110.001,199.994v-69.996h110v69.996H110.001z M250.001,129.988h50v70.006h-50V129.988z M300.001,99.988h-120V30.014l120-0.006
	V99.988z M150.001,30.015v69.974h-120V30.021L150.001,30.015z M30.001,229.994h64.923c0.026,0,0.051,0.004,0.077,0.004h55v70.004
	h-120V229.994z M180.001,300.002v-70.004h55c0.026,0,0.051-0.004,0.077-0.004h64.923v70.008H180.001z"/>
<g>
</g>
<g>
</g>
<g>
</g>
<g>
</g>
<g>
</g>
<g>
</g>
<g>
</g>
<g>
</g>
<g>
</g>
<g>
</g>
<g>
</g>
<g>
</g>
<g>
</g>
<g>
</g>
<g>
</g>
</svg>
